<?xml version="1.0" encoding="UTF-8" standalone="no"?>
<!-- Created with Inkscape (http://www.inkscape.org/) -->

<svg
   xmlns:dc="http://purl.org/dc/elements/1.1/"
   xmlns:cc="http://creativecommons.org/ns#"
   xmlns:rdf="http://www.w3.org/1999/02/22-rdf-syntax-ns#"
   xmlns:svg="http://www.w3.org/2000/svg"
   xmlns="http://www.w3.org/2000/svg"
   xmlns:sodipodi="http://sodipodi.sourceforge.net/DTD/sodipodi-0.dtd"
   xmlns:inkscape="http://www.inkscape.org/namespaces/inkscape"
   version="1.1"
   id="svg8196"
   width="300"
   height="296"
   viewBox="0 0 300 296"
   sodipodi:docname="aclogo.svg"
   inkscape:version="0.92.2 (5c3e80d, 2017-08-06)">
  <metadata
     id="metadata8202">
    <rdf:RDF>
      <cc:Work
         rdf:about="">
        <dc:format>image/svg+xml</dc:format>
        <dc:type
           rdf:resource="http://purl.org/dc/dcmitype/StillImage" />
        <dc:title></dc:title>
      </cc:Work>
    </rdf:RDF>
  </metadata>
  <defs
     id="defs8200" />
  <sodipodi:namedview
     pagecolor="#ffffff"
     bordercolor="#666666"
     borderopacity="1"
     objecttolerance="10"
     gridtolerance="10"
     guidetolerance="10"
     inkscape:pageopacity="0"
     inkscape:pageshadow="2"
     inkscape:window-width="1920"
     inkscape:window-height="1001"
     id="namedview8198"
     showgrid="false"
     inkscape:zoom="2.2550973"
     inkscape:cx="199.79237"
     inkscape:cy="109.81737"
     inkscape:window-x="-9"
     inkscape:window-y="-9"
     inkscape:window-maximized="1"
     inkscape:current-layer="svg8196" />
  <path
     style="fill:#677821;stroke-width:1.25423729"
     d="M 125.04068,270.30228 C 112.60149,267.66564 110.46539,266.93804 96.973377,260.74204 70.478815,248.57482 48.529189,226.00294 36.247791,198.29492 22.152965,166.49562 21.779363,131.32491 35.203213,99.958876 38.849978,91.437881 46.565853,77.564294 49.730879,73.837299 67.391226,53.041248 76.645412,45.30326 94.730331,36.210515 c 12.040039,-6.053498 20.108969,-8.62152 34.817009,-11.08088 38.39362,-6.419872 78.01908,5.883878 106.94274,33.205852 7.30733,6.902666 21.07566,25.107752 20.13717,26.626247 -0.36675,0.593419 -0.0988,1.078944 0.59544,1.078944 2.76598,0 11.91786,22.751672 15.38781,38.254242 2.1047,9.40311 2.07372,37.50251 -0.0525,47.66101 -1.68487,8.04968 -5.13574,18.41059 -6.47504,19.44068 -0.44844,0.34492 -0.83522,1.47373 -0.85952,2.50847 -0.0712,3.03388 -6.45638,16.30509 -7.84486,16.30509 -0.69854,0 -1.27006,1.0955 -1.27006,2.43445 0,1.33895 -0.55073,2.77484 -1.22387,3.19084 -0.67312,0.41602 -3.21605,3.75776 -5.65095,7.4261 -8.54334,12.87107 -28.21003,28.62147 -47.47815,38.02365 -21.38376,10.43454 -52.67538,14.11256 -76.71482,9.01707 z M 111.8697,242.81991 c 2.12356,0.60904 6.23797,0.70451 9.14312,0.21218 4.55504,-0.77194 5.33685,-1.36732 5.67986,-4.32544 0.30387,-2.62055 -0.28826,-3.70538 -2.50848,-4.59573 -2.76905,-1.11046 -2.72862,-1.16931 0.85648,-1.2466 3.59069,-0.0774 3.76271,0.15737 3.76271,5.13566 0,3.05276 0.65035,5.43805 1.5678,5.7502 0.99294,0.33784 1.56779,-0.68024 1.56779,-2.77662 v -3.31006 l 2.93222,3.40892 2.93222,3.40891 2.64769,-2.6477 c 2.38648,-2.38647 2.71473,-2.43747 3.32716,-0.51693 0.42595,1.33575 2.08779,2.18059 4.45399,2.26431 2.96995,0.1051 3.77452,-0.39551 3.77452,-2.34849 0,-2.06406 0.31683,-2.21909 1.88136,-0.92066 1.03474,0.85877 1.92591,2.48 1.98037,3.60273 0.0636,1.31188 0.32602,1.4783 0.73425,0.46573 0.34936,-0.86659 1.13296,-1.26799 1.7413,-0.89201 0.60836,0.37598 1.82473,-0.46712 2.70306,-1.87354 1.93959,-3.10577 3.18267,-3.25844 3.72363,-0.45731 0.26392,1.36663 1.83382,2.20876 4.49604,2.41177 2.25432,0.17191 3.76938,-0.20769 3.37513,-0.84561 -0.39346,-0.63663 1.32665,-1.15752 3.82249,-1.15752 2.49583,0 4.24138,0.47975 3.87899,1.0661 -0.3624,0.58636 1.15642,1.00966 3.37513,0.94068 3.18165,-0.099 4.1187,-0.7217 4.4348,-2.94746 0.4499,-3.16779 2.10241,-3.68175 3.61316,-1.12377 0.55165,0.93403 2.2813,2.36939 3.84365,3.18968 2.24717,1.17983 2.947,1.15258 3.34978,-0.13047 1.51503,-4.82618 1.77255,-5.08222 1.86309,-1.85229 0.0968,3.45486 0.22963,3.51866 6.05665,2.9104 3.2767,-0.34203 6.62511,-0.66164 7.4409,-0.71024 2.67259,-0.15926 3.28058,-5.12165 0.94387,-7.70369 -2.14067,-2.36541 -2.00687,-2.4186 6.08411,-2.4186 4.5501,0 8.62173,-0.56441 9.04807,-1.25424 0.4832,-0.78183 -2.00198,-1.25423 -6.5981,-1.25423 -6.37726,0 -7.75628,-0.44052 -10.2087,-3.26105 l -2.83543,-3.26104 2.76264,-2.94071 c 5.82266,-6.19792 -0.32693,-12.42506 -11.48145,-11.62624 l -5.50337,0.39412 -0.62712,9.32944 -0.62711,9.32945 -5.02652,-9.32945 c -6.62131,-12.28945 -8.3354,-12.30621 -15.2331,-0.14892 -2.86482,5.04929 -5.54575,9.51751 -5.95763,9.92938 -0.41187,0.41188 -0.74886,-2.95115 -0.74886,-7.47336 0,-6.99226 0.32115,-8.19617 2.14687,-8.04803 1.18076,0.0958 2.35437,-0.83116 2.60799,-2.05993 0.41689,-2.01983 -0.57115,-2.21006 -10.2994,-1.98305 l -10.76054,0.25108 v 4.17797 c 0,4.1155 -0.0844,4.17796 -5.64407,4.17796 -5.63626,0 -5.64407,-0.006 -5.64407,-4.48179 0,-3.592 -0.43577,-4.39853 -2.19491,-4.0624 -1.84207,0.35198 -2.25348,2.08057 -2.5592,10.75298 -0.33734,9.56917 -0.56047,10.33359 -3.01643,10.33359 -2.4899,0 -2.52516,-0.14032 -0.57639,-2.29368 4.08349,-4.5122 1.32068,-9.19699 -6.39035,-10.83588 -4.33554,-0.92148 -5.33121,-2.77269 -2.14821,-3.99413 1.06044,-0.40693 2.93921,0.17519 4.17504,1.29361 3.31397,2.9991 5.03006,2.48385 4.91746,-1.47645 -0.0839,-2.95082 -0.68225,-3.55431 -3.7563,-3.78854 -2.01108,-0.15324 -4.04495,-0.37882 -4.51971,-0.50129 -2.28373,-0.58911 -6.31115,1.89739 -6.93457,4.28135 -1.06679,4.07939 1.01507,6.68437 6.70428,8.3889 5.51944,1.65366 6.17925,4.24541 1.26356,4.96331 -1.72553,0.252 -3.38155,-0.3906 -4.04035,-1.5678 -1.62282,-2.89982 -4.51548,-2.44243 -4.98075,0.78756 -0.38536,2.67526 -0.49049,2.6449 -2.73038,-0.78851 -1.28127,-1.96401 -2.4392,-4.31782 -2.57319,-5.2307 -0.13398,-0.91288 -1.27064,-2.79465 -2.52592,-4.18172 -1.25527,-1.38706 -1.98186,-3.3049 -1.61464,-4.26186 1.12899,-2.9421 -6.9372,-1.9731 -8.485728,1.01939 -0.713934,1.37966 -3.259611,6.03601 -5.657058,10.34745 l -4.358996,7.83899 h -7.235915 c -9.398159,0 -9.417939,2.26948 -0.02406,2.75944 7.148464,0.37284 7.215351,0.41241 7.608468,4.50038 0.330404,3.43585 1.015147,4.24795 4.102371,4.86539 2.038172,0.40764 3.99087,1.20246 4.339327,1.76628 0.348457,0.56382 2.854091,0.24167 5.568071,-0.71588 3.38677,-1.19493 6.14554,-1.39367 8.79554,-0.63367 z M 70.481356,200.87893 c 4.483898,-1.65392 15.772034,-6.10697 25.084746,-9.89564 22.522518,-9.16281 38.357438,-12.49034 59.576268,-12.51928 24.16739,-0.033 40.54715,4.45253 65.22739,17.86209 14.85708,8.07234 22.43009,9.4148 29.18524,5.17365 5.66541,-3.55697 6.94031,-7.63026 6.1064,-19.50992 -2.77185,-39.48724 -48.12589,-115.462583 -82.82772,-138.749857 -4.21158,-2.82625 -7.56334,-5.499318 -7.44837,-5.940153 0.23906,-0.916635 -4.43604,-1.471911 -15.29079,-1.81613 -6.27486,-0.198985 -8.93366,0.442955 -15.67796,3.785285 -22.28913,11.046001 -52.100484,49.437426 -74.089661,95.413555 -7.435149,15.5458 -14.564591,36.51356 -16.049637,47.20215 -2.734736,19.68318 6.395064,26.301 26.204094,18.99425 z"
     id="path8206"
     inkscape:connector-curvature="0" />
  <path
     style="fill:#677821;stroke-width:0.44343984"
     d="m 95.713421,228.04502 c 1.256575,-3.14662 1.842015,-3.40532 7.675129,-3.39149 l 5.09955,0.0121 1.1086,2.26316 c 0.60973,1.24474 1.16522,2.3941 1.23443,2.55412 0.0692,0.16003 -3.47545,0.33137 -7.87701,0.38077 l -8.002823,0.0898 z"
     id="path8208"
     inkscape:connector-curvature="0" />
  <path
     style="fill:#677821;stroke-width:0.44343984"
     d="m 99.993608,219.48843 c 0.281922,-0.60783 0.662242,-1.1067 0.845162,-1.1086 0.18292,-0.002 0.33258,-0.27213 0.33258,-0.60049 0,-0.86019 1.32614,-3.39393 1.77635,-3.39393 0.2096,0 0.5212,0.44898 0.69245,0.99774 0.17125,0.54875 0.43414,1.09751 0.58418,1.21946 0.15005,0.12194 0.73457,1.0698 1.29893,2.10634 l 1.02611,1.88462 h -3.53417 -3.534171 z"
     id="path8210"
     inkscape:connector-curvature="0" />
  <path
     style="fill:#677821;stroke-width:0.44343984"
     d="m 95.628349,240.01037 c -2.834054,-0.99695 -3.190181,-2.11588 -0.99774,-3.13484 3.090323,-1.43626 7.801311,-1.30477 9.261621,0.2585 0.28534,0.30545 1.22734,0.4749 2.1506,0.38686 1.57726,-0.15042 1.64448,-0.10023 1.68306,1.25667 0.039,1.37268 0.0154,1.39088 -0.82257,0.63257 -0.89279,-0.80797 -1.07198,-0.77505 -4.06306,0.74653 -1.03542,0.52672 -5.559602,0.43495 -7.211911,-0.14629 z"
     id="path8212"
     inkscape:connector-curvature="0" />
  <path
     style="fill:#677821;stroke-width:0.44343984"
     d="m 114.25282,240.10492 c -0.15073,-0.24389 -0.57586,-0.44344 -0.94472,-0.44344 -0.72235,0 -1.9452,-1.03585 -1.92572,-1.63123 0.007,-0.20034 1.27112,-0.92637 2.81012,-1.61342 l 2.7982,-1.24916 2.51099,0.8477 c 3.03335,1.02405 4.50046,2.17883 3.71134,2.92122 -1.47014,1.38307 -8.2788,2.27087 -8.96021,1.16833 z"
     id="path8214"
     inkscape:connector-curvature="0" />
  <path
     style="fill:#677821;stroke-width:0.44343984"
     d="m 147.58977,239.99406 c 0.4155,-6.55684 0.16869,-7.10212 -3.09614,-6.84039 -1.56851,0.12574 -2.29992,0.37879 -2.30162,0.79628 -0.003,0.68543 -3.37777,5.66844 -3.85702,5.6947 -0.16886,0.009 -1.26638,-1.11783 -2.43892,-2.50464 -1.17254,-1.38681 -2.58088,-2.95619 -3.12963,-3.48751 -0.54876,-0.53132 -0.99774,-1.07312 -0.99774,-1.20399 0,-0.30889 64.76659,-0.36278 65.26571,-0.0543 0.20845,0.12883 -0.0236,0.74606 -0.51569,1.37164 -0.61702,0.78441 -0.89469,1.80263 -0.89469,3.28089 0,1.72313 -0.13044,2.09342 -0.66516,1.88823 -0.36583,-0.14039 -0.66516,-0.51977 -0.66516,-0.84308 0,-0.32331 -0.36939,-0.70508 -0.82087,-0.84837 -0.45148,-0.14329 -1.9721,-1.15448 -3.37915,-2.24708 -2.68096,-2.08181 -3.29136,-2.28028 -4.69792,-1.52751 -0.72948,0.39041 -0.85773,0.95009 -0.85773,3.74307 0,1.80622 -0.16396,3.38536 -0.36434,3.5092 -0.33563,0.20743 -1.85286,-1.21883 -1.85286,-1.74176 0,-0.2333 -1.92561,-2.45302 -4.08688,-4.71109 -0.66248,-0.69215 -1.52367,-1.25846 -1.91377,-1.25846 -0.75461,0 -2.49861,0.81064 -2.86815,1.33316 -0.12194,0.17243 -0.95355,1.19018 -1.84802,2.26167 -0.89446,1.07149 -2.01293,2.43308 -2.48547,3.02574 l -0.85918,1.07757 -0.0825,-3.27132 c -0.0454,-1.79923 -0.29236,-3.52413 -0.54879,-3.8331 -0.67656,-0.8152 -4.02175,-0.43911 -4.58669,0.51566 -0.68673,1.1606 -4.38064,5.54525 -4.65097,5.52069 -0.13035,-0.0118 -1.13497,-1.14151 -2.23248,-2.51037 -2.99778,-3.73895 -3.4413,-4.12093 -4.76698,-4.1056 -2.518,0.0291 -2.87283,0.77998 -2.70316,5.72017 0.13417,3.90654 0.0623,4.46566 -0.57416,4.46528 -0.62624,-3.7e-4 -0.69918,-0.44809 -0.52382,-3.21537 z"
     id="path8216"
     inkscape:connector-curvature="0" />
  <path
     style="fill:#677821;stroke-width:0.44343984"
     d="m 140.93312,229.61018 c -0.56416,-0.56417 -0.33192,-7.13668 0.25867,-7.32045 0.30487,-0.0949 2.86541,-0.0999 5.69009,-0.0111 l 5.13579,0.16136 -0.10343,2.9569 c -0.0569,1.62629 -0.12308,3.3061 -0.14709,3.73291 -0.039,0.69289 -0.60579,0.77602 -5.29103,0.77602 -2.88606,0 -5.38041,-0.13303 -5.543,-0.29562 z"
     id="path8218"
     inkscape:connector-curvature="0" />
  <path
     style="fill:#677821;stroke-width:0.44343984"
     d="m 158.04251,230.02138 -1.44118,-0.17177 v -8.61898 -8.61898 h 1.08243 c 0.59533,0 1.20575,0.19955 1.35649,0.44344 0.15073,0.24389 1.03748,0.44344 1.97055,0.44344 h 1.6965 l 0.27741,2.32806 c 0.15258,1.28043 0.28425,4.52308 0.2926,7.2059 0.008,2.68281 0.017,5.2496 0.0192,5.70398 0.002,0.45438 -0.0566,0.87559 -0.13065,0.93603 -0.32766,0.26741 -3.81461,0.50486 -5.12334,0.34888 z"
     id="path8220"
     inkscape:connector-curvature="0" />
  <path
     style="fill:#677821;stroke-width:0.44343984"
     d="m 179.21676,219.92841 c 0,-0.36584 0.29932,-0.66516 0.66516,-0.66516 0.36584,0 0.66516,-0.32204 0.66516,-0.71565 0,-0.3936 0.42775,-1.47672 0.95055,-2.40692 0.80021,-1.42379 1.04568,-1.59615 1.55204,-1.08979 0.33082,0.33082 0.60149,0.81926 0.60149,1.08542 0,0.26615 0.49887,1.27418 1.1086,2.24006 0.60973,0.96587 1.1086,1.85987 1.1086,1.98666 0,0.1268 -1.49661,0.23054 -3.3258,0.23054 -2.66064,0 -3.3258,-0.13304 -3.3258,-0.66516 z m 3.407,-3.40895 c -0.14156,-0.35374 -0.24664,-0.24867 -0.26791,0.26791 -0.0193,0.46746 0.0855,0.72937 0.2329,0.58202 0.14735,-0.14735 0.16311,-0.52982 0.035,-0.84993 z"
     id="path8222"
     inkscape:connector-curvature="0" />
  <path
     style="fill:#677821;stroke-width:0.44343984"
     d="m 182.4317,230.00666 c -6.56696,-0.0981 -8.09278,-0.23742 -8.09278,-0.73907 0,-0.34001 0.16972,-0.68472 0.37716,-0.76601 0.20744,-0.0813 0.90837,-0.9959 1.55761,-2.03244 l 1.18044,-1.88462 h 5.2811 5.28111 l 1.36595,2.73352 c 0.75128,1.50344 1.31561,2.75062 1.25407,2.7715 -0.0615,0.0209 -3.75363,-0.0164 -8.20466,-0.0829 z"
     id="path8224"
     inkscape:connector-curvature="0" />
  <path
     style="fill:#677821;stroke-width:0.44343984"
     d="m 200.77205,229.51481 c -0.0844,-0.15079 -0.18181,-3.81614 -0.21654,-8.14522 l -0.0631,-7.87106 h 4.21742 c 3.66887,0 5.04045,0.35269 3.88485,0.99897 -0.18292,0.1023 -0.0579,0.11548 0.27792,0.0293 0.95582,-0.24532 1.82842,0.73729 1.82842,2.05893 0,1.26118 -1.36086,2.23408 -3.12495,2.23408 -0.4763,0 -0.86601,0.20124 -0.86601,0.44719 0,0.27082 -0.33684,0.23684 -0.85402,-0.0861 -0.65705,-0.41034 -1.11729,-0.4134 -1.99548,-0.0133 -1.52732,0.69589 -1.47349,2.13983 0.14323,3.84235 2.51018,2.64339 3.38665,3.6426 4.61566,5.2621 l 1.24423,1.63955 -4.4691,-0.0613 c -2.458,-0.0337 -4.53813,-0.18468 -4.6225,-0.33547 z"
     id="path8226"
     inkscape:connector-curvature="0" />
  <path
     style="fill:#677821;stroke-width:0.44343984"
     d="m 205.65435,240.6267 c -0.39494,-0.0788 -0.73429,-0.2784 -0.75411,-0.44344 -0.2312,-1.92576 -0.1986,-3.13221 0.10764,-3.98228 0.33482,-0.92946 0.58573,-1.00561 2.78225,-0.84444 1.32783,0.0974 2.91805,0.50725 3.53383,0.91072 3.08144,2.01904 1.93779,4.10504 -2.38751,4.35478 -1.41021,0.0814 -2.88715,0.0835 -3.2821,0.005 z"
     id="path8228"
     inkscape:connector-curvature="0" />
  <path
     style="fill:#677821;stroke-width:0.44343984"
     d="m 88.27407,234.02285 -0.569469,-1.45135 -5.266851,0.044 c -2.896769,0.0242 -5.386194,-0.0753 -5.532056,-0.22118 -0.145863,-0.14586 12.138642,-0.26483 27.298896,-0.26437 15.16026,4.6e-4 27.56411,0.1498 27.56411,0.33186 0,0.18207 -0.66408,0.53888 -1.47573,0.79293 -1.13695,0.35586 -1.60382,0.32477 -2.03369,-0.13541 -0.64562,-0.69114 -6.24626,-0.68151 -6.24626,0.0107 0,0.23313 -0.62656,0.33192 -1.39235,0.21953 -3.60089,-0.5285 -10.09525,0.67748 -11.09458,2.06023 -0.16079,0.22247 -0.6308,0.066 -1.04447,-0.34763 -0.43416,-0.43416 -1.09559,-0.64312 -1.56455,-0.49428 -0.67107,0.21299 -1.66819,-0.12062 -3.07224,-1.02788 -0.11488,-0.0742 0.0847,-0.32061 0.44344,-0.54751 0.51242,-0.32406 0.43272,-0.41399 -0.37159,-0.41933 -0.56316,-0.004 -0.92541,0.1526 -0.80501,0.34741 0.1204,0.1948 -1.61387,0.34468 -3.85393,0.33306 -3.424203,-0.0178 -4.425936,0.14927 -6.290031,1.04878 -3.157462,1.52362 -4.005935,1.47307 -4.693639,-0.27963 z m 4.639485,-0.35376 c 0.883406,-0.36911 1.606194,-0.73738 1.606194,-0.81837 0,-0.11801 -3.555767,-0.03 -4.988698,0.12354 -0.758833,0.0813 -0.257247,0.87533 0.665159,1.05299 0.548757,0.1057 1.023257,0.21935 1.054445,0.25256 0.03119,0.0332 0.779493,-0.24161 1.6629,-0.61072 z m 19.089645,-0.71167 c -0.2406,-0.38929 -2.5512,-0.18451 -3.32683,0.29486 -0.47739,0.29504 -0.36608,0.44548 0.47689,0.64448 1.11884,0.26412 3.17489,-0.41355 2.84994,-0.93934 z"
     id="path8230"
     inkscape:connector-curvature="0" />
</svg>
